<?xml version="1.0" encoding="utf-8"?>
<!-- Generator: Adobe Illustrator 16.0.4, SVG Export Plug-In . SVG Version: 6.00 Build 0)  -->
<!DOCTYPE svg PUBLIC "-//W3C//DTD SVG 1.1//EN" "http://www.w3.org/Graphics/SVG/1.1/DTD/svg11.dtd">
<svg version="1.1" xmlns="http://www.w3.org/2000/svg" xmlns:xlink="http://www.w3.org/1999/xlink" x="0px" y="0px"
	 width="77.526px" height="18.593px" viewBox="0 0 77.526 18.593" enable-background="new 0 0 77.526 18.593" xml:space="preserve">
<g id="Layer_2" display="none">
	<rect display="inline" width="77.526" height="18.535"/>
</g>
<g id="Layer_1">
	<g>
		<polygon fill-rule="evenodd" clip-rule="evenodd" fill="#FFFFFF" points="18.593,0 18.593,14.978 14.979,14.978 14.979,3.615 
			3.615,3.615 3.615,0 		"/>
		<polygon fill-rule="evenodd" clip-rule="evenodd" fill="#FFFFFF" points="14.978,14.978 14.978,18.593 0,18.593 0,3.615 
			3.616,3.615 3.616,14.978 		"/>
		<polygon fill-rule="evenodd" clip-rule="evenodd" fill="#FFFFFF" points="31.613,8.021 31.613,0.007 30.076,0.007 27.311,3.995 
			24.545,0.007 22.974,0.007 22.974,8.021 24.545,8.021 24.545,2.767 26.826,6.094 27.771,6.094 30.042,2.767 30.042,8.021 		"/>
		<rect x="35.648" y="0.007" fill-rule="evenodd" clip-rule="evenodd" fill="#FFFFFF" width="1.572" height="8.016"/>
		<path fill-rule="evenodd" clip-rule="evenodd" fill="#FFFFFF" d="M49.117,7.227V5.43l-1.572,0.016v1.009h-4.717V1.573h4.717v1.021
			l1.572,0.003V0.814c0-0.458-0.344-0.808-0.792-0.808h-6.288c-0.438,0-0.78,0.35-0.78,0.808v6.412c0,0.445,0.343,0.796,0.78,0.796
			h6.288C48.773,8.022,49.117,7.672,49.117,7.227"/>
		<path fill-rule="evenodd" clip-rule="evenodd" fill="#FFFFFF" d="M61.013,8.022l-2.364-3.206h1.572
			c0.449,0,0.792-0.351,0.792-0.796V0.814c0-0.458-0.343-0.808-0.792-0.808h-7.068v8.016h1.572V4.816h1.95l2.352,3.206H61.013z
			 M54.725,1.573h4.716v1.675h-4.716V1.573z"/>
		<path fill-rule="evenodd" clip-rule="evenodd" fill="#FFFFFF" d="M72.908,7.227V0.814c0-0.458-0.343-0.808-0.792-0.808h-6.288
			c-0.437,0-0.779,0.35-0.779,0.808v6.412c0,0.445,0.343,0.796,0.779,0.796h6.288C72.565,8.022,72.908,7.672,72.908,7.227
			 M66.62,1.573h4.717v4.881H66.62V1.573z"/>
		<polygon fill-rule="evenodd" clip-rule="evenodd" fill="#FFFFFF" points="30.832,12.087 30.832,10.52 22.973,10.52 22.973,18.535 
			24.544,18.535 24.544,15.317 29.261,15.317 29.261,13.738 24.544,13.738 24.544,12.087 		"/>
		<path fill-rule="evenodd" clip-rule="evenodd" fill="#FFFFFF" d="M40.883,17.74v-6.412c0-0.459-0.344-0.808-0.792-0.808h-6.288
			c-0.438,0-0.78,0.349-0.78,0.808v6.412c0,0.445,0.343,0.795,0.78,0.795h6.288C40.539,18.535,40.883,18.186,40.883,17.74
			 M34.594,12.087h4.716v4.881h-4.716V12.087z"/>
		<path fill-rule="evenodd" clip-rule="evenodd" fill="#FFFFFF" d="M51.558,17.739v-1.796l-1.572,0.016v1.009h-4.717v-4.881h4.717
			v1.021l1.572,0.003v-1.784c0-0.458-0.343-0.807-0.792-0.807h-6.288c-0.438,0-0.78,0.349-0.78,0.807v6.412
			c0,0.446,0.343,0.796,0.78,0.796h6.288C51.215,18.535,51.558,18.186,51.558,17.739"/>
		<path fill-rule="evenodd" clip-rule="evenodd" fill="#FFFFFF" d="M62.232,17.739v-7.219H60.66v6.447h-4.717v-6.447h-1.571v7.219
			c0,0.446,0.343,0.796,0.78,0.796h6.288C61.89,18.535,62.232,18.186,62.232,17.739"/>
		<path fill-rule="evenodd" clip-rule="evenodd" fill="#FFFFFF" d="M72.907,17.739v-3.193c0-0.446-0.343-0.808-0.792-0.808h-5.496
			v-1.651h4.716v0.844l1.572,0.003v-1.606c0-0.458-0.343-0.807-0.792-0.807h-6.288c-0.437,0-0.78,0.349-0.78,0.807v3.183
			c0,0.446,0.344,0.808,0.78,0.808h5.508v1.65h-4.716v-0.831l-1.572-0.015v1.617c0,0.446,0.344,0.796,0.78,0.796h6.288
			C72.564,18.535,72.907,18.186,72.907,17.739"/>
		<path fill="#FFFFFF" d="M76.072,2.994c-0.815,0-1.452-0.637-1.452-1.453c0-0.821,0.637-1.454,1.456-1.454
			c0.801,0,1.45,0.642,1.45,1.434C77.526,2.349,76.889,2.994,76.072,2.994 M76.076,0.218c-0.738,0-1.325,0.583-1.325,1.326
			c0,0.732,0.587,1.319,1.321,1.319c0.731,0,1.319-0.587,1.319-1.319C77.392,0.797,76.82,0.218,76.076,0.218 M76.432,2.459
			l-0.375-0.808h-0.302v0.808h-0.22V0.622h0.541c0.405,0,0.572,0.179,0.572,0.514c0,0.271-0.127,0.441-0.363,0.49l0.388,0.833
			H76.432z M75.755,1.459h0.317c0.258,0,0.355-0.09,0.355-0.323c0-0.235-0.094-0.313-0.383-0.313h-0.29V1.459z"/>
	</g>
</g>
</svg>
